<svg xmlns:x="http://ns.adobe.com/Extensibility/1.0/" xmlns:i="http://ns.adobe.com/AdobeIllustrator/10.0/" xmlns:graph="http://ns.adobe.com/Graphs/1.0/" xmlns="http://www.w3.org/2000/svg" xmlns:xlink="http://www.w3.org/1999/xlink" version="1.1" x="0px" y="0px" width="100px" height="100px" viewBox="0 0 100 100" enable-background="new 0 0 100 100" xml:space="preserve">
<metadata>
	<sfw xmlns="http://ns.adobe.com/SaveForWeb/1.0/">
		<slices/>
		<sliceSourceBounds height="1780.628" width="870" bottomLeftOrigin="true" x="-192" y="-1744.628"/>
	</sfw>
</metadata>
<g id="Captions">
</g>
<g id="Your_Icon">
	<path fill="#000000" d="M18.078,68.079c-2.998,0-6.039-0.086-9.039-0.257c-0.486-0.025-0.872-0.415-0.895-0.901   c-0.039-0.798-0.281-1.258-1.408-1.258c-0.128,0-0.254-0.026-0.373-0.074c-0.679-0.29-1.094-1.202-0.926-2.03   c0.183-0.891,0.999-1.955,3.853-1.955c1.369,0,3.011,0.182,4.749,0.375c1.872,0.204,3.808,0.419,5.523,0.419   c2.348,0,3.555-0.397,4.171-0.961c-3.004-0.07-9.256-1.569-14.305-2.783c-1.408-0.338-2.681-0.646-3.687-0.872   C5.308,57.685,5,57.299,5,56.857V39.176c0.145-4.59,2.602-7.084,7.106-7.232l12.898-0.004c0.419-0.011,0.868-0.019,1.317-0.019   c3.603,0,7.208,0.479,10.716,1.429c0.072,0.022,0.144,0.049,0.21,0.086c5.045,2.779,10.344,5.102,15.754,6.905   c4.466,1.488,9.117,2.701,13.824,3.6c4.423,0.961,8.934,1.514,13.431,1.651l1.609-0.538c3.907-1.562,7.911-3.117,11.848-4.602   c0.425-0.163,0.896,0,1.138,0.379c0.241,0.378,0.184,0.876-0.138,1.188l-8.546,8.363c2.649,2.661,5.273,5.314,7.873,7.971   c0.295,0.305,0.355,0.765,0.148,1.132c-0.206,0.367-0.631,0.55-1.041,0.46c-4.229-0.976-10.65-1.718-14.939-1.725   c-4.034,0-11.839,1.988-21.993,5.603c-1.063,0.379-2.158,0.835-3.275,1.299c-3.196,1.328-6.503,2.705-9.864,2.705H30.11   c-3.402,0.13-6.963,0.212-10.548,0.245L18.078,68.079z M9.915,65.967c2.714,0.142,5.456,0.212,8.163,0.212l1.466-0.008   c3.566-0.033,7.11-0.114,10.531-0.244h13.001c2.981,0,6.109-1.303,9.136-2.561c1.146-0.479,2.272-0.946,3.365-1.336   c7.327-2.605,17.195-5.711,22.615-5.711c3.486,0.008,8.319,0.479,12.338,1.169c-2.111-2.148-4.239-4.293-6.385-6.441   c-0.18-0.183-0.279-0.424-0.278-0.68c0.002-0.252,0.104-0.493,0.286-0.672l5.971-5.844c-2.534,0.976-5.078,1.978-7.605,2.987   l-1.82,0.608c-0.107,0.033-0.242,0.048-0.326,0.048c-4.672-0.13-9.356-0.701-13.926-1.692c-4.767-0.912-9.5-2.145-14.046-3.658   c-5.482-1.829-10.854-4.179-15.969-6.987c-3.728-0.998-7.568-1.443-11.396-1.317H12.138c-3.451,0.119-5.126,1.822-5.237,5.365   v16.892c0.87,0.204,1.879,0.445,2.972,0.709c4.8,1.154,11.373,2.73,14.065,2.73c0.273,0,0.447-0.015,0.553-0.033   c0.177-0.282,0.521-0.445,0.849-0.445c0.524,0.022,0.931,0.464,0.909,0.987v0.004h-0.002c-0.186,4.249-5.076,4.249-6.684,4.249   c-1.821,0-3.809-0.22-5.73-0.431c-1.687-0.186-3.279-0.364-4.542-0.364c-1.067,0-1.607,0.179-1.843,0.312   C8.742,64.012,9.602,64.765,9.915,65.967z M26.741,55.606c-1.824,0-3.033-0.986-3.313-2.712c-0.024-0.138-0.024-0.282,0-0.42   c0.28-1.729,1.486-2.72,3.313-2.72c1.703,0,2.893,1.014,3.18,2.709c0.024,0.145,0.024,0.293,0,0.438   C29.634,54.598,28.444,55.606,26.741,55.606z"/>
</g>
</svg>